<?xml version="1.0" encoding="UTF-8"?>
<svg version="1.1" xmlns="http://www.w3.org/2000/svg" width="1000" height="1000">
<path d="M0 0 C4.95 0 9.9 0 15 0 C15 80.19 15 160.38 15 243 C10.05 243 5.1 243 0 243 C-0.33 181.29 -0.66 119.58 -1 56 C-25.84519657 81.04324331 -25.84519657 81.04324331 -50.66308594 106.11352539 C-55.46923828 110.94226074 -55.46923828 110.94226074 -57.72027588 113.19749451 C-59.29471476 114.77962625 -60.86418458 116.36671209 -62.42974854 117.95762634 C-64.7981522 120.36245819 -67.18170497 122.75124085 -69.56933594 125.13696289 C-70.26693905 125.85255654 -70.96454216 126.5681502 -71.68328476 127.3054285 C-72.32693104 127.9421873 -72.97057732 128.57894609 -73.63372803 129.23500061 C-74.46887247 130.0770585 -74.46887247 130.0770585 -75.32088852 130.93612766 C-77 132 -77 132 -79.10259914 131.75763702 C-81.42672749 130.82960662 -82.70085385 129.66679019 -84.46411133 127.89233398 C-85.12192093 127.23752548 -85.77973053 126.58271698 -86.45747375 125.9080658 C-87.50912971 124.83788963 -87.50912971 124.83788963 -88.58203125 123.74609375 C-89.31443527 123.01181656 -90.04683929 122.27753937 -90.80143738 121.52101135 C-92.35234145 119.96338203 -93.89964202 118.40215774 -95.44360352 116.83764648 C-97.78618449 114.46416266 -100.13902553 112.10127491 -102.49414062 109.74023438 C-104.00322375 108.22196975 -105.51170626 106.70310787 -107.01953125 105.18359375 C-107.71456253 104.48431259 -108.40959381 103.78503143 -109.12568665 103.06455994 C-109.79295273 102.38768631 -110.46021881 101.71081268 -111.14770508 101.01342773 C-111.72410233 100.43020248 -112.30049957 99.84697723 -112.8943634 99.24607849 C-116.01934868 95.91266273 -118.99118921 92.4386409 -122 89 C-131.57 79.43 -141.14 69.86 -151 60 C-151.33 101.58 -151.66 143.16 -152 186 C-164.54 186 -177.08 186 -190 186 C-190 136.5 -190 87 -190 36 C-177.46 36 -164.92 36 -152 36 C-149.69 38.64 -147.38 41.28 -145 44 C-142.73444021 46.34694955 -140.45951634 48.66805528 -138.14672852 50.96679688 C-137.50197067 51.61170074 -136.85721283 52.25660461 -136.19291687 52.92105103 C-134.09061182 55.02266713 -131.98480223 57.1207327 -129.87890625 59.21875 C-128.40895544 60.686833 -126.93922728 62.15513897 -125.4697113 63.62365723 C-121.62344055 67.46613136 -117.77417494 71.3055914 -113.92425537 75.14440918 C-109.9873866 79.07100211 -106.05338869 83.00046906 -102.11914062 86.9296875 C-94.41555078 94.62259043 -86.70879065 102.31230887 -79 110 C-74.13693207 105.87369332 -69.38122483 101.65988462 -64.70361328 97.32495117 C-64.01169388 96.68457916 -63.31977448 96.04420715 -62.60688782 95.38442993 C-56.24158175 89.47221456 -49.95965414 83.47440135 -43.70514107 77.44526196 C-39.51956136 73.41481357 -35.30975345 69.41987871 -31.02539062 65.49438477 C-8.01337358 45.87420595 -8.01337358 45.87420595 1.74856567 18.65657043 C1.77766185 12.31955516 1.07528749 6.25563092 0 0 Z " fill="#5F3E44" transform="translate(286,284)"/>
<path d="M0 0 C1.16466797 -0.020625 2.32933594 -0.04125 3.52929688 -0.0625 C19.83062424 -0.13515216 32.78142946 4.55603435 44.65234375 15.84375 C57.58911271 29.46605714 59.9375 43.70880504 59.9375 62.25 C32.2175 62.25 4.4975 62.25 -24.0625 62.25 C-19.15681021 82.25874819 -19.15681021 82.25874819 -5.49609375 96.8203125 C0.05373021 99.64773373 4.65581129 101.35257648 10.91796875 101.56640625 C12.08134766 101.60830078 13.24472656 101.65019531 14.44335938 101.69335938 C15.65830078 101.73267578 16.87324219 101.77199219 18.125 101.8125 C19.35154297 101.85568359 20.57808594 101.89886719 21.84179688 101.94335938 C24.87356192 102.04953014 27.905516 102.15027764 30.9375 102.25 C30.9375 106.54 30.9375 110.83 30.9375 115.25 C24.62447583 115.34977426 18.31192279 115.42189239 11.99829102 115.46972656 C9.85595695 115.4896927 7.71367632 115.51687538 5.5715332 115.55175781 C-14.00981042 115.86235529 -28.86262284 114.00225033 -43.8125 100.0625 C-55.50406775 87.63890206 -59.71963202 72.53163166 -59.46508789 55.83496094 C-58.85029725 39.73545771 -54.01884525 26.41778234 -42.765625 14.7265625 C-30.26116852 3.2701674 -16.44811827 0.07116547 0 0 Z M-15.0625 27.4375 C-19.64755073 33.88522759 -21.93483316 39.35633209 -23.0625 47.25 C0.3675 47.25 23.7975 47.25 47.9375 47.25 C45.11256146 34.53777655 41.16808875 26.56520363 30.9375 18.25 C14.17956779 8.21641973 -2.57029975 13.77415598 -15.0625 27.4375 Z " fill="#5F3E44" transform="translate(392.0625,385.75)"/>
<path d="M0 0 C16.83217296 14.59127852 20.84265935 30.90082259 22.45556641 52.40625 C22.63926834 55.34056576 22.79072251 58.27570756 22.93554688 61.2121582 C23.41984322 70.63651936 24.99224315 78.15475751 29.24609375 86.61328125 C30.26953125 88.92578125 30.26953125 88.92578125 30.26953125 91.92578125 C27.29953125 93.57578125 24.32953125 95.22578125 21.26953125 96.92578125 C17.37893549 91.84639234 14.67382055 86.84919791 12.26953125 80.92578125 C11.72425781 81.56644531 11.17898438 82.20710937 10.6171875 82.8671875 C0.19930506 94.8165877 -11.48390732 103.37644029 -27.73046875 104.92578125 C-45.90492892 106.03841174 -62.29619478 103.48312109 -76.54296875 91.23828125 C-86.08220692 82.05642087 -93.05221593 69.7870752 -93.89160156 56.34545898 C-94.21410292 35.33224555 -92.73996735 19.35363002 -77.546875 3.50390625 C-56.87495173 -15.41907483 -22.41002425 -17.023924 0 0 Z M-48.73046875 14.92578125 C-51.15740988 18.0994735 -53.01842882 21.31979715 -54.73046875 24.92578125 C-55.14296875 25.79460938 -55.55546875 26.6634375 -55.98046875 27.55859375 C-60.78665353 39.54067942 -60.354838 54.01546162 -55.9921875 66.0625 C-51.19457473 76.9499618 -44.96623452 85.38262379 -33.73046875 89.92578125 C-26.40768636 92.36670871 -19.3393241 91.64090041 -12.41796875 88.36328125 C-1.70149198 82.32130932 4.03578971 73.68475124 7.8984375 62.02783203 C11.9369072 47.51458154 9.71772906 32.61635401 2.45703125 19.61328125 C-2.97622794 11.12977128 -9.18845432 6.10645273 -18.73046875 2.92578125 C-32.17568285 1.89000179 -39.54685309 5.00254554 -48.73046875 14.92578125 Z " fill="#5F3E44" transform="translate(873.73046875,563.07421875)"/>
<path d="M0 0 C11.14228763 8.9326925 18.95407603 20.56213414 21.41210938 34.81054688 C22.733833 54.05417369 22.41580038 71.46727966 9.41210938 86.81054688 C8.8165625 87.51695312 8.22101563 88.22335937 7.60742188 88.95117188 C-1.44469496 98.79206237 -14.36433934 105.15362037 -27.74853516 105.93701172 C-45.46290296 106.50797369 -61.05188928 104.51396121 -74.96289062 92.43554688 C-85.62825549 82.1967966 -92.37486385 69.78136583 -92.92382812 54.79882812 C-93.18197557 35.86519432 -91.44629713 19.99880791 -77.83789062 5.49804688 C-57.61111349 -13.21172198 -22.65644771 -16.971435 0 0 Z M-48.77539062 17.12304688 C-53.06427921 23.4824334 -56.34725186 30.21163446 -57.58789062 37.81054688 C-57.72195313 38.61878906 -57.85601563 39.42703125 -57.99414062 40.25976562 C-59.63597052 53.03991878 -57.35254069 66.28372018 -49.90039062 76.93554688 C-44.79509914 83.29137694 -38.61602278 89.66971163 -30.58789062 91.81054688 C-21.04499844 92.78962283 -14.02207974 91.74783915 -6.24804688 86.11523438 C3.38678603 78.19575442 9.30792578 67.14153501 10.63964844 54.68164062 C11.61580376 40.56115479 9.218708 27.28462304 0.41210938 15.81054688 C-5.63830255 9.10980277 -12.30257188 4.66399893 -21.34960938 3.43554688 C-33.32024152 2.90129272 -40.8705344 8.76648458 -48.77539062 17.12304688 Z " fill="#5F3E44" transform="translate(615.587890625,598.189453125)"/>
<path d="M0 0 C1.00772461 0.01015137 2.01544922 0.02030273 3.05371094 0.03076172 C20.05882486 0.38537855 32.66934884 6.14683049 44.5625 18.375 C57.34771401 32.50602601 58.44526806 49.38945741 57.75341797 67.54980469 C57.03286925 78.21245143 52.87821186 86.86613984 46.5625 95.375 C46.08941406 96.03113281 45.61632812 96.68726563 45.12890625 97.36328125 C37.82767236 106.69148658 26.08552078 113.01917115 14.5625 115.375 C10.02424006 115.63017563 5.48218911 115.60635512 0.9375 115.625 C-0.29613281 115.645625 -1.52976562 115.66625 -2.80078125 115.6875 C-10.22800617 115.71907163 -16.49552465 115.05001245 -23.4375 112.375 C-24.34242188 112.045 -25.24734375 111.715 -26.1796875 111.375 C-38.61260014 105.54564902 -48.72876574 94.88574186 -53.7109375 82.109375 C-55.73996438 75.92156254 -57.1748223 69.88483873 -57.4375 63.375 C-57.47746094 62.53710938 -57.51742187 61.69921875 -57.55859375 60.8359375 C-57.97117539 43.99289894 -53.67099058 29.1626863 -42.4375 16.375 C-30.53404585 4.95859389 -16.37191171 -0.23970992 0 0 Z M-11.625 25.625 C-19.41939511 35.32563304 -23.20218712 47.95723945 -22.78515625 60.359375 C-21.08603639 75.09780797 -16.24985057 87.7968206 -4.4375 97.375 C2.22556245 101.55455736 8.71586582 103.23456869 16.5625 102.375 C27.23659166 99.63636134 34.80638782 92.55736943 40.5625 83.375 C47.54209695 70.70152133 48.4687815 56.03712085 44.52734375 42.21484375 C40.88980967 31.50841752 34.78122046 21.86967724 24.625 16.3125 C10.61385268 10.22728764 -1.61775981 14.82838463 -11.625 25.625 Z " fill="#5F3E44" transform="translate(590.4375,372.625)"/>
<path d="M0 0 C7.27406567 5.64670804 12.96908874 12.7340807 17 21 C17 21.33 17 21.66 17 22 C12.28707647 22.3402378 7.70421809 22.51598191 3 22 C0.6875 19.5 0.6875 19.5 -1 16 C-7.86812762 8.63237219 -13.87535473 4.98281746 -23.9375 4.5625 C-32.61035741 4.82432211 -38.8755402 8.07878723 -45.15234375 13.96875 C-54.97174224 24.76386039 -57.93829928 38.42385974 -57.3828125 52.625 C-56.56989526 64.38418016 -51.84182589 75.75404211 -43.1875 83.875 C-36.21837313 89.44766666 -29.9015755 91.73216858 -20.921875 91.37890625 C-12.78370514 90.32355535 -6.49620417 85.9574241 -1 80 C-0.46375 78.865625 0.0725 77.73125 0.625 76.5625 C3 74 3 74 6.3515625 73.62890625 C9.92063507 73.62533002 13.44083584 73.74305499 17 74 C11.68864643 86.47013446 1.42679354 96.37347573 -10.9375 101.8125 C-27.03253234 107.95163404 -44.95629371 108.01553681 -61.078125 101.81640625 C-75.13337855 95.45550304 -84.91926167 84.51609392 -90.375 70.1875 C-95.8792283 54.36882649 -94.84381747 34.34484238 -87.71484375 19.28515625 C-80.04527832 5.42012014 -68.85404466 -3.5573939 -53.82421875 -8.2734375 C-35.64045711 -12.95141767 -15.73046506 -10.47627883 0 0 Z " fill="#5F3E44" transform="translate(485,562)"/>
<path d="M0 0 C4.95 0 9.9 0 15 0 C15 88.77 15 177.54 15 269 C10.05 269 5.1 269 0 269 C0 180.23 0 91.46 0 0 Z " fill="#5F3E44" transform="translate(731,447)"/>
<path d="M0 0 C5.28 0 10.56 0 16 0 C16 71.61 16 143.22 16 217 C10.72 217 5.44 217 0 217 C0 145.39 0 73.78 0 0 Z " fill="#5F3E44" transform="translate(485,250)"/>
<path d="M0 0 C5.28 0 10.56 0 16 0 C16 47.85 16 95.7 16 145 C10.72 145 5.44 145 0 145 C0 97.15 0 49.3 0 0 Z " fill="#5F3E44" transform="translate(670,509)"/>
</svg>
