<?xml version="1.0" encoding="UTF-8"?>
<svg version="1.1" xmlns="http://www.w3.org/2000/svg" width="1920" height="1080">
<path d="M0 0 C6.27 0 12.54 0 19 0 C19 97.02 19 194.04 19 294 C12.73 294 6.46 294 0 294 C-0.33 219.42 -0.66 144.84 -1 68 C-31.11080235 98.30886406 -31.11080235 98.30886406 -61.19433594 128.64477539 C-67.01611328 134.48913574 -67.01611328 134.48913574 -69.74176025 137.21897888 C-71.64967549 139.13458989 -73.55314729 141.05382926 -75.45123291 142.97911072 C-78.32077013 145.88921695 -81.20973853 148.77927499 -84.10058594 151.66821289 C-84.94808285 152.53370034 -85.79557976 153.39918779 -86.66875839 154.29090214 C-87.44674915 155.06200541 -88.22473991 155.83310869 -89.02630615 156.62757874 C-89.70105862 157.30694016 -90.37581108 157.98630159 -91.07101059 158.68624973 C-93 160 -93 160 -95.12994766 159.80867672 C-97.57050037 158.75329548 -98.97158974 157.35339642 -100.8125 155.4375 C-101.43769531 154.79683594 -102.06289063 154.15617188 -102.70703125 153.49609375 C-104.57529324 151.46232984 -106.38411317 149.39958997 -108.18629456 147.30810547 C-111.74542383 143.23673422 -115.47880036 139.38612128 -119.31225586 135.57421875 C-120.36916925 134.51712456 -120.36916925 134.51712456 -121.44743443 133.43867493 C-123.70090969 131.18593869 -125.95778489 128.93664513 -128.21484375 126.6875 C-129.61778126 125.28603504 -131.02049202 123.88434306 -132.42297363 122.48242188 C-137.59174207 117.31887 -142.76487989 112.15969342 -147.9375 107 C-159.508125 95.45 -171.07875 83.9 -183 72 C-183.33 122.82 -183.66 173.64 -184 226 C-199.18 226 -214.36 226 -230 226 C-230 165.94 -230 105.88 -230 44 C-214.82 44 -199.64 44 -184 44 C-181.69 46.64 -179.38 49.28 -177 52 C-175.69941304 53.37530099 -174.38467824 54.73764021 -173.04518127 56.07507324 C-172.34559799 56.77603119 -171.64601471 57.47698914 -170.92523193 58.19918823 C-170.18363831 58.93718658 -169.44204468 59.67518494 -168.67797852 60.43554688 C-167.87716354 61.23650787 -167.07634857 62.03746887 -166.25126648 62.86270142 C-163.62951228 65.4837644 -161.00424438 68.10127722 -158.37890625 70.71875 C-156.55023187 72.54555739 -154.72177956 74.37258712 -152.89353943 76.1998291 C-148.58903814 80.50091512 -144.28231966 84.79976911 -139.97449392 89.09752512 C-135.06553775 93.99525807 -130.1594609 98.89587099 -125.25360978 103.79671383 C-115.17224733 113.86765692 -105.0873197 123.93502403 -95 134 C-89.62587458 129.45093452 -84.40416077 124.76318879 -79.23486328 119.9831543 C-77.96289848 118.8077861 -77.96289848 118.8077861 -76.66523743 117.6086731 C-68.84539371 110.35668302 -61.12767677 102.99982468 -53.44671822 95.60133648 C-48.30400138 90.65261747 -43.13035558 85.74813584 -37.86132812 80.93383789 C-10.61116415 57.77371071 -10.61116415 57.77371071 2.17084694 26.07969761 C2.55066158 17.20491292 1.53849212 8.73095724 0 0 Z " fill="#603E44" transform="translate(534,402)"/>
<path d="M0 0 C0.68037323 0.00370605 1.36074646 0.00741211 2.06173706 0.01123047 C22.93421029 0.17303021 38.99340718 5.16317064 54.28515625 19.87109375 C69.66228131 36.29836393 71.6875 53.21280625 71.6875 75.4375 C38.3575 75.4375 5.0275 75.4375 -29.3125 75.4375 C-25.72678686 92.17082801 -21.74795431 106.12647679 -8.01171875 116.8671875 C1.59629663 122.45679992 10.4508353 123.08377991 21.3125 123.1875 C22.8086274 123.21571658 24.30472343 123.24565176 25.80078125 123.27734375 C29.4299858 123.35370575 33.05712548 123.3948399 36.6875 123.4375 C36.6875 129.0475 36.6875 134.6575 36.6875 140.4375 C30.39275225 140.48744002 24.09812327 140.5234719 17.80322266 140.54736328 C15.66778552 140.55733745 13.53236173 140.57092161 11.39697266 140.58837891 C-13.96284234 140.79030718 -34.22416052 138.70616254 -53.5625 120.625 C-66.96100758 106.56889696 -71.67565683 89.57236583 -71.625 70.6875 C-71.64111328 69.5015625 -71.65722656 68.315625 -71.67382812 67.09375 C-71.68416846 48.15026515 -65.52482334 32.17308367 -52.3125 18.4375 C-37.51265466 4.23968226 -20.0120712 -0.1579738 0 0 Z M-12.3125 26.4375 C-13.18648437 27.12005859 -13.18648437 27.12005859 -14.078125 27.81640625 C-18.5097142 31.63915098 -21.05688667 36.23302466 -23.6875 41.375 C-24.03361328 42.04321777 -24.37972656 42.71143555 -24.73632812 43.39990234 C-25.05794922 44.06070801 -25.37957031 44.72151367 -25.7109375 45.40234375 C-25.99630371 45.9862085 -26.28166992 46.57007324 -26.57568359 47.17163086 C-27.64893161 50.47209966 -27.88202699 53.99371595 -28.3125 57.4375 C0.0675 57.4375 28.4475 57.4375 57.6875 57.4375 C55.61916527 42.95915691 49.02133436 32.59822197 38.02734375 23.1640625 C22.68953699 11.84634866 1.58784668 14.28954745 -12.3125 26.4375 Z " fill="#603E44" transform="translate(663.3125,487.5625)"/>
<path d="M0 0 C3.57536813 2.7880851 6.81298077 5.77907631 10 9 C10.62390625 9.59039062 11.2478125 10.18078125 11.890625 10.7890625 C28.42586756 27.69672043 29.2396231 53.05647288 30.203125 75.28125 C30.81429122 88.50466461 34.00272502 100.17750301 40 112 C38.4050992 113.19991599 36.79873853 114.38461318 35.1875 115.5625 C34.29417969 116.22378906 33.40085937 116.88507813 32.48046875 117.56640625 C31.66191406 118.03949219 30.84335938 118.51257813 30 119 C27 118 27 118 25.24609375 115.015625 C24.63295344 113.76540397 24.03047422 112.50991081 23.4375 111.25 C23.13392578 110.62867188 22.83035156 110.00734375 22.51757812 109.3671875 C20.86921348 105.96272196 19.35456682 102.53130853 18 99 C17.47792969 99.68964844 16.95585938 100.37929688 16.41796875 101.08984375 C4.65952626 116.10193583 -9.90237112 125.92339525 -29.0625 128.625 C-51.28678879 130.72884834 -70.58332974 126.85897713 -88.4375 113.125 C-102.02238615 101.74306836 -109.36460077 85.48292033 -111 68 C-112.33485253 46.59830503 -108.78879354 26.97403332 -94.59765625 10.15234375 C-70.83439792 -15.21606859 -28.80724812 -19.03001567 0 0 Z M-56.00390625 19.35546875 C-66.57404871 33.71533831 -71.12888034 50.88459777 -68.4609375 68.57421875 C-65.42287728 84.01490943 -59.19964229 97.63004116 -46 107 C-36.95145813 112.31216013 -27.45881074 113.59977225 -17.140625 111.38671875 C-5.3425658 107.12213366 3.08173173 98.06579692 8.46875 86.9765625 C15.7611297 70.14473262 17.03087556 52.75585596 10.8125 35.25 C8.30326801 29.20135279 5.12915451 24.06963438 1 19 C0.47792969 18.35289062 -0.04414062 17.70578125 -0.58203125 17.0390625 C-6.52503361 10.41644673 -15.5165785 5.64098657 -24.41015625 4.76171875 C-37.41312601 4.3978654 -47.58092537 9.45477193 -56.00390625 19.35546875 Z " fill="#603E44" transform="translate(1576,499)"/>
<path d="M0 0 C0.86367187 0.25523437 1.72734375 0.51046875 2.6171875 0.7734375 C18.89577781 6.44233956 30.74707177 18.87360883 38.48046875 33.87109375 C47.01821912 51.92305275 47.66264747 74.73440934 41.25 93.625 C34.66113543 110.1810197 24.10415976 123.08411195 8 131 C-12.24042516 139.69592345 -35.29082284 139.5414651 -55.671875 131.5625 C-71.20174251 124.50963441 -83.41827632 111.69924225 -89.96875 95.8984375 C-97.36053996 75.12302785 -95.9873512 51.72058509 -86.9375 31.75 C-78.43226522 15.76161874 -63.68010189 4.33610372 -46.5 -1.109375 C-31.38996425 -4.62179559 -14.86997916 -4.46487625 0 0 Z M-32 21 C-33.485 22.0209375 -33.485 22.0209375 -35 23.0625 C-45.95644011 32.70536146 -51.27773602 48.31996545 -52.23828125 62.5234375 C-52.57613695 80.05636997 -48.58199684 96.22268077 -36.3125 109.4375 C-29.09639462 116.21225337 -20.70293186 120.47427985 -10.8125 121.25 C0.0100886 120.54032206 9.67009966 115.79260382 17.1875 108 C29.49564386 93.17541377 32.31210399 75.70651005 31 57 C29.38493862 44.10860913 22.80281929 30.61513594 13 22 C-1.59906273 11.11662647 -17.14341696 10.3097196 -32 21 Z " fill="#603E44" transform="translate(1245,527)"/>
<path d="M0 0 C2.47546047 2.16792627 4.7725265 4.41617212 7.046875 6.79296875 C7.75199219 7.47875 8.45710937 8.16453125 9.18359375 8.87109375 C22.07454738 22.13036034 25.58493788 38.85605174 25.421875 56.79296875 C25.43347656 58.06914063 25.44507813 59.3453125 25.45703125 60.66015625 C25.40012492 79.21161925 19.20579004 95.49035261 6.046875 108.79296875 C-11.12756611 124.01631627 -30.17456328 127.90541088 -52.42675781 126.94824219 C-68.74657425 125.94520747 -84.43431716 118.36814922 -95.953125 106.79296875 C-108.75886667 91.95350546 -113.50387316 76.1252668 -113.328125 56.79296875 C-113.33972656 55.51679687 -113.35132813 54.240625 -113.36328125 52.92578125 C-113.30637492 34.37431825 -107.11204004 18.09558489 -93.953125 4.79296875 C-68.41908964 -17.8402856 -27.67954577 -20.68643302 0 0 Z M-54.953125 13.79296875 C-55.57832031 14.37820313 -56.20351563 14.9634375 -56.84765625 15.56640625 C-62.22471433 21.11918518 -65.13487001 27.67046978 -67.953125 34.79296875 C-68.29601562 35.62054687 -68.63890625 36.448125 -68.9921875 37.30078125 C-74.1687001 52.34653283 -71.9026905 70.4646319 -65.66796875 84.734375 C-60.41925942 95.24641403 -52.53481911 104.73783597 -41.25390625 108.75390625 C-31.338844 111.70272422 -22.78251969 111.46947813 -13.55859375 106.50390625 C-0.2935226 98.05222548 7.63310135 85.38280655 11.296875 70.16796875 C14.33173343 52.51061062 11.23838562 34.67922515 1.046875 19.79296875 C-6.21182167 10.72274293 -15.18844356 4.25601182 -26.890625 2.66796875 C-37.86474329 2.29450399 -47.10887089 6.30317013 -54.953125 13.79296875 Z " fill="#603E44" transform="translate(939.953125,537.20703125)"/>
<path d="M0 0 C7.35043843 6.26416674 13.70083182 13.20129063 17.625 22.125 C17.625 22.785 17.625 23.445 17.625 24.125 C12.38829479 24.80804851 7.80880824 25.05995539 2.625 24.125 C-0.30071619 21.69121839 -2.12277986 19.15667143 -4.2734375 16.02734375 C-9.56454321 8.72011039 -17.61150034 4.66101246 -26.375 3.125 C-35.61347537 1.95371945 -44.04496407 4.51922172 -51.625 9.875 C-62.7811362 19.05035284 -69.43166808 31.78288922 -71.375 46.125 C-72.33044342 58.04862321 -71.76164838 68.89864328 -67.375 80.125 C-67.024375 81.02476562 -66.67375 81.92453125 -66.3125 82.8515625 C-61.487265 93.67483266 -52.60343647 102.81076865 -41.5625 107.2578125 C-33.3964205 109.47946648 -23.91590025 109.43485728 -16.359375 105.38671875 C-9.5223609 101.03956215 -3.11865218 96.19714647 0.8125 88.9296875 C2.625 87.125 2.625 87.125 6.19921875 86.734375 C7.57085748 86.7608801 8.94221938 86.8084691 10.3125 86.875 C11.01439453 86.89304687 11.71628906 86.91109375 12.43945312 86.9296875 C14.16855436 86.97673787 15.89695205 87.04848127 17.625 87.125 C16.33900801 97.05571595 6.93168375 105.85194468 -0.375 112.125 C-17.47769825 125.07605089 -37.94713146 128.10104691 -58.875 125.4375 C-76.43961384 122.34288395 -91.57252464 113.93276493 -102.30859375 99.53125 C-111.57250765 85.66526275 -114.73384343 72.28295596 -114.6875 55.8125 C-114.70361328 54.67876953 -114.71972656 53.54503906 -114.73632812 52.37695312 C-114.7470144 33.62253773 -108.43258105 17.69971298 -95.375 4.125 C-70.19254185 -20.03308697 -27.35398451 -20.98674768 0 0 Z " fill="#603E44" transform="translate(1104.375,501.875)"/>
<path d="M0 0 C6.27 0 12.54 0 19 0 C19 107.58 19 215.16 19 326 C12.73 326 6.46 326 0 326 C0 218.42 0 110.84 0 0 Z " fill="#603E44" transform="translate(1406,360)"/>
<path d="M0 0 C6.27 0 12.54 0 19 0 C19 86.79 19 173.58 19 263 C12.73 263 6.46 263 0 263 C0 176.21 0 89.42 0 0 Z " fill="#603E44" transform="translate(771,348)"/>
<path d="M0 0 C6.27 0 12.54 0 19 0 C19 57.75 19 115.5 19 175 C12.73 175 6.46 175 0 175 C0 117.25 0 59.5 0 0 Z " fill="#603E44" transform="translate(1333,436)"/>
</svg>
